<?xml version="1.0" encoding="UTF-8"?>
<svg version="1.1" xmlns="http://www.w3.org/2000/svg" width="180" height="180">
<path d="M0 0 C1.71207642 -0.01429802 1.71207642 -0.01429802 3.45874023 -0.02888489 C5.28707397 -0.02751778 5.28707397 -0.02751778 7.15234375 -0.02612305 C8.41699463 -0.03040817 9.68164551 -0.0346933 10.98461914 -0.03910828 C13.65427624 -0.04484268 16.32354553 -0.04629741 18.99316406 -0.04101562 C22.40270197 -0.03521675 25.81169738 -0.05217365 29.22114563 -0.0753603 C32.48987402 -0.09368732 35.75857326 -0.08991154 39.02734375 -0.08862305 C40.24623291 -0.09783279 41.46512207 -0.10704254 42.72094727 -0.11653137 C53.35073406 -0.05852224 53.35073406 -0.05852224 58.08984375 3.2746582 C61.51025493 7.06484357 63.20639719 9.4651672 63.25097656 14.53735352 C63.26058411 15.41877014 63.27019165 16.30018677 63.28009033 17.20831299 C63.28434021 18.16348816 63.28859009 19.11866333 63.29296875 20.1027832 C63.29866882 21.08454529 63.3043689 22.06630737 63.3102417 23.07781982 C63.31970012 25.15920939 63.32622901 27.24061399 63.33007812 29.32202148 C63.33976218 32.49790849 63.37076895 35.67314252 63.40234375 38.84887695 C63.40887593 40.87100853 63.41412556 42.89314473 63.41796875 44.9152832 C63.43031555 45.86236145 63.44266235 46.8094397 63.4553833 47.78521729 C63.43531668 53.7630493 63.06639881 58.28560836 58.62857056 62.74206543 C54.0481727 66.51325884 50.44897899 66.83421636 44.69140625 66.3840332 C43.06823728 66.31930542 41.44484103 66.26008943 39.82128906 66.20581055 C38.56717224 66.15707794 38.56717224 66.15707794 37.28771973 66.10736084 C20.57538261 65.36517202 20.57538261 65.36517202 6.45068359 73.26782227 C3.35198372 76.76434273 0.57532694 80.31899019 -1.91015625 84.2746582 C-2.57015625 85.2646582 -3.23015625 86.2546582 -3.91015625 87.2746582 C-4.90015625 87.2746582 -5.89015625 87.2746582 -6.91015625 87.2746582 C-7.1510716 80.0471977 -6.25511453 73.37171482 -4.91015625 66.2746582 C-5.68101563 66.15735352 -6.451875 66.04004883 -7.24609375 65.91918945 C-12.05123158 64.75665611 -15.35101194 60.36928911 -17.91015625 56.2746582 C-19.04364674 52.01419654 -19.07130682 47.79015959 -19.078125 43.41137695 C-19.0814534 42.66056351 -19.0847818 41.90975006 -19.08821106 41.13618469 C-19.09325817 39.55189625 -19.09562007 37.96759725 -19.09545898 36.38330078 C-19.09763972 33.98036838 -19.11580288 31.57789981 -19.13476562 29.17504883 C-19.13770131 27.62882642 -19.13968493 26.08260186 -19.140625 24.53637695 C-19.14781052 23.82777023 -19.15499603 23.11916351 -19.16239929 22.38908386 C-19.13455347 16.19851595 -18.50464796 9.97968295 -14.66015625 4.8996582 C-10.29776191 0.73555451 -5.89820141 0.02720408 0 0 Z M-0.91015625 17.2746582 C-1.50085639 19.22069095 -1.50085639 19.22069095 -1.91015625 21.2746582 C-0.92048899 22.48470652 -0.92048899 22.48470652 0.99440002 22.39491272 C1.82712936 22.39269211 2.6598587 22.3904715 3.51782227 22.38818359 C4.45872208 22.38810806 5.39962189 22.38803253 6.36903381 22.38795471 C7.39194016 22.38279343 8.4148465 22.37763214 9.46875 22.37231445 C11.03144875 22.37019203 11.03144875 22.37019203 12.62571716 22.36802673 C15.96795469 22.362409 19.31012632 22.3498535 22.65234375 22.3371582 C24.91210841 22.33214549 27.17187412 22.32758219 29.43164062 22.32348633 C34.98439766 22.31243381 40.537116 22.29567844 46.08984375 22.2746582 C46.68054389 20.32862546 46.68054389 20.32862546 47.08984375 18.2746582 C46.10017649 17.06460989 46.10017649 17.06460989 44.18528748 17.15440369 C43.35255814 17.1566243 42.5198288 17.15884491 41.66186523 17.16113281 C40.72096542 17.16120834 39.78006561 17.16128387 38.81065369 17.16136169 C37.78774734 17.16652298 36.764841 17.17168427 35.7109375 17.17700195 C34.14823875 17.17912437 34.14823875 17.17912437 32.55397034 17.18128967 C29.21173281 17.1869074 25.86956118 17.1994629 22.52734375 17.2121582 C20.26757909 17.21717092 18.00781338 17.22173422 15.74804688 17.22583008 C10.19528984 17.23688259 4.6425715 17.25363796 -0.91015625 17.2746582 Z M-1.91015625 32.2746582 C-1.50486724 35.05703475 -1.50486724 35.05703475 0.08984375 37.2746582 C2.51477748 37.37551474 4.91060036 37.41438152 7.3359375 37.4074707 C8.06224869 37.40842743 8.78855988 37.40938416 9.53688049 37.41036987 C11.07610155 37.41105164 12.61532546 37.40919757 14.15454102 37.4050293 C16.51390032 37.39968863 18.87306859 37.40497035 21.23242188 37.41137695 C22.72526084 37.41071602 24.21809968 37.40943454 25.7109375 37.4074707 C26.41931259 37.40949493 27.12768768 37.41151917 27.85752869 37.41360474 C31.59857557 37.45130194 31.59857557 37.45130194 35.08984375 36.2746582 C35.13256475 34.60853915 35.13048207 32.94082935 35.08984375 31.2746582 C33.12242747 29.30724192 29.31416644 30.11077614 26.625 30.10668945 C25.87649277 30.10336105 25.12798553 30.10003265 24.35679626 30.09660339 C22.77050391 30.09153127 21.18420085 30.08919516 19.59790039 30.08935547 C17.16600006 30.08717047 14.73455426 30.06902239 12.30273438 30.05004883 C10.76432447 30.04711471 9.22591241 30.04513004 7.6875 30.04418945 C6.95725113 30.03700394 6.22700226 30.02981842 5.47462463 30.02241516 C1.32714382 29.90756387 1.32714382 29.90756387 -1.91015625 32.2746582 Z " fill="#272324" transform="translate(56.91015625,35.725341796875)"/>
<path d="M0 0 C6.59375 -0.265625 6.59375 -0.265625 10.25 2.125 C15.91174255 8.04409448 16.4587863 13.16792519 16.43359375 21 C16.4388356 21.95390625 16.44407745 22.9078125 16.44947815 23.890625 C16.45588196 25.90103179 16.45458267 27.91147614 16.44604492 29.921875 C16.43752703 32.99026375 16.46633225 36.05679452 16.49804688 39.125 C16.49965893 41.08333278 16.49908128 43.04166884 16.49609375 45 C16.50732773 45.91265625 16.51856171 46.8253125 16.53013611 47.765625 C16.46929799 53.35006137 15.7369061 56.57793018 12 61 C9.28664979 63.44863311 7.46956331 64.8434789 4 66 C4.33 72.6 4.66 79.2 5 86 C0.44881699 84.86220425 -0.96189605 83.46006283 -4 80 C-4 79.34 -4 78.68 -4 78 C-4.66 78 -5.32 78 -6 78 C-7.625 76.625 -7.625 76.625 -9 75 C-9 74.34 -9 73.68 -9 73 C-9.66 73 -10.32 73 -11 73 C-11 72.34 -11 71.68 -11 71 C-11.66 71 -12.32 71 -13 71 C-14.625 69.625 -14.625 69.625 -16 68 C-16 67.34 -16 66.68 -16 66 C-17.67171265 66.0314209 -17.67171265 66.0314209 -19.37719727 66.06347656 C-23.53494279 66.13619407 -27.69263273 66.18191446 -31.85083008 66.21972656 C-33.64617382 66.23977001 -35.44145287 66.26701251 -37.23657227 66.30175781 C-39.8258465 66.35059849 -42.4142534 66.3730412 -45.00390625 66.390625 C-45.79898087 66.41127014 -46.59405548 66.43191528 -47.41322327 66.45318604 C-53.07314457 66.45543526 -56.29969734 65.16087835 -61 62 C-60.16875265 57.49276397 -58.20765401 54.83070688 -54.93359375 51.68066406 C-48.44148228 47.96131525 -40.26747887 49.16213355 -33 49.375 C-20.37522204 50.35510942 -20.37522204 50.35510942 -8.96484375 46.17578125 C-3.60861419 41.07873691 -0.95315942 35.94531211 -0.73423767 28.47627258 C-0.70916893 27.38393562 -0.70916893 27.38393562 -0.68359375 26.26953125 C-0.66281265 25.51911057 -0.64203156 24.76868988 -0.62062073 23.99552917 C-0.55530074 21.60127816 -0.49632208 19.20691861 -0.4375 16.8125 C-0.39429807 15.18813987 -0.35068324 13.56379067 -0.30664062 11.93945312 C-0.19963737 7.95974629 -0.09832063 3.97993042 0 0 Z " fill="#292627" transform="translate(125,57)"/>
<path d="M0 0 C0 0.66 0 1.32 0 2 C-1.65071396 3.02611949 -3.31970006 4.02308143 -5 5 C-7.13469665 6.68497341 -7.91230958 7.51154646 -8.39872742 10.22099304 C-8.40983047 11.08481094 -8.42093353 11.94862885 -8.43237305 12.83862305 C-8.45216721 13.8194133 -8.47196136 14.80020355 -8.49235535 15.81071472 C-8.49874527 16.86704605 -8.50513519 17.92337738 -8.51171875 19.01171875 C-8.52966995 20.09508011 -8.54762115 21.17844147 -8.56611633 22.29463196 C-8.62034985 25.75888157 -8.65415744 29.22299238 -8.6875 32.6875 C-8.72066149 35.03452458 -8.75515004 37.38153081 -8.79101562 39.72851562 C-8.87608374 45.48555262 -8.94437832 51.2426073 -9 57 C-12.94481393 53.05518607 -12.15973611 47.42390065 -12.16796875 42.13671875 C-12.17129715 41.3859053 -12.17462555 40.63509186 -12.17805481 39.86152649 C-12.18310192 38.27723805 -12.18546382 36.69293905 -12.18530273 35.10864258 C-12.18748347 32.70571018 -12.20564663 30.3032416 -12.22460938 27.90039062 C-12.22754506 26.35416822 -12.22952868 24.80794366 -12.23046875 23.26171875 C-12.23765427 22.55311203 -12.24483978 21.84450531 -12.25224304 21.11442566 C-12.21609101 13.07725476 -10.78500693 6.78500693 -5 1 C-2 0 -2 0 0 0 Z " fill="#B9B8B8" transform="translate(50,37)"/>
<path d="M0 0 C0 0.66 0 1.32 0 2 C-1.65071396 3.02611949 -3.31970006 4.02308143 -5 5 C-7.59070637 7.12808023 -8.43056986 8.69730521 -9 12 C-9.66 12 -10.32 12 -11 12 C-10.5535141 6.93982644 -8.404811 4.56694486 -5 1 C-2 0 -2 0 0 0 Z " fill="#ADABAC" transform="translate(50,37)"/>
<path d="M0 0 C0.66 0 1.32 0 2 0 C2.33 1.65 2.66 3.3 3 5 C3.99 5 4.98 5 6 5 C4.6875 7 4.6875 7 3 9 C2.01 9 1.02 9 0 9 C0 6.03 0 3.06 0 0 Z " fill="#828282" transform="translate(50,114)"/>
<path d="M0 0 C0.66 0 1.32 0 2 0 C2 2.31 2 4.62 2 7 C0.125 6.6875 0.125 6.6875 -2 6 C-2.66 5.01 -3.32 4.02 -4 3 C-2.68 3.33 -1.36 3.66 0 4 C0 2.68 0 1.36 0 0 Z " fill="#7C7C7C" transform="translate(128,136)"/>
</svg>
